<svg xmlns="http://www.w3.org/2000/svg" fill="none" viewBox="0 0 347 79"><path fill="#EDEDED" fill-opacity=".5" fill-rule="evenodd" d="M18.7.326c4.722 1.368 5.713 6.35 1.942 9.803-.723.684-.838.945-.419 1.075 7.046 2.215 9.826 2.28 13.292.26l1.333-.748.114.781c.267 1.89-2.437 4.267-5.827 5.081-.952.228-1.714.521-1.714.651 0 .098.457.554.99 1.01 1.638 1.303 3.657 3.843 5.485 6.872l1.752 2.834 2.094-2.508c1.181-1.368 2.438-3.029 2.819-3.648.761-1.205.99-4.201.457-5.472-.42-.977.076-.912 1.904.229 3.237 2.019 4.799 7.1 3.39 11.17-.343 1.01-.61 1.922-.61 2.053 0 .098 1.029-.26 2.323-.847 4.38-1.987 8.76-7.23 9.903-11.725.876-3.518-.077-7.198-2.476-9.673-2.285-2.313-7.54-3.16-9.445-1.531-1.866 1.596-1.6 4.006.495 5.016 2.018.944 4.304-.456 3.428-2.117-.229-.424-.648-.782-.99-.782-.305 0-.572-.163-.572-.326 0-.586 2.247-.358 3.047.326 1.105.944 1.295 2.02.571 3.452-.571 1.173-.571 1.27.038 1.661 1.943 1.205 2.704 4.072 1.448 5.57-.724.912-1.295.912-1.295.032 0-1.14-1.105-2.735-2.247-3.322-.61-.293-2.21-.847-3.58-1.205-1.333-.358-2.933-.977-3.504-1.368-1.524-1.01-2.476-3.029-2.476-5.244 0-1.077 0-1.529-.223-1.719-.161-.137-.44-.137-.92-.137-2.589 0-5.712-1.922-5.712-3.452 0-.912.267-.945 1.752-.294 1.6.717 3.047.62 7.236-.52C45.398.781 46.997.553 49.511.52c4.494-.032 7.045.847 10.13 3.485 2.59 2.247 4.038 4.56 4.761 7.621l.457 2.085 3.466-2.931C72.362 7.393 74.99 5.7 78.684 4.104c4.684-2.02 7.35-2.573 13.292-2.736 9.026-.293 13.901.847 23.041 5.341 2.819 1.4 5.827 2.801 6.665 3.127 4.418 1.596 9.75 1.987 12.454.88 2.095-.847 2.323-.815 2.019.228-.419 1.432-1.524 2.507-3.657 3.517-1.713.782-2.551.944-5.712 1.075l-3.695.163 2.247 2.28c1.257 1.27 5.409 5.764 9.255 9.966 14.625 16.09 19.271 19.835 25.403 20.454 2.399.228 3.466-.033 5.141-1.27 1.6-1.206 2.438-2.671 2.438-4.3 0-1.498-1.828-3.354-3.618-3.648-2.971-.456-5.37 2.248-3.161 3.583.457.293.99.521 1.142.521.61 0 1.448-1.074 1.448-1.889l.038-.88.723.782c1.333 1.336.838 2.9-1.219 3.811-3.351 1.498-7.578-1.856-6.474-5.178.166-.402.352-.89.485-1.239l.124-.325c.229-.456-.228-.553-3.846-.684-2.971-.13-4.609-.358-5.827-.814-6.018-2.28-8.417-8.338-4.228-10.748 1.486-.847 3.047-.944 4.57-.26 2.209.976 2.324 3.647.229 4.462-.8.325-1.104.293-1.638-.163-.571-.521-.571-.554.229-.554 1.028 0 1.485-.814.838-1.466-.572-.586-1.943-.651-2.59-.097-1.333 1.14.228 3.843 2.971 5.048 1.904.814 5.636 1.27 7.769.944l1.409-.227-1.752-1.694c-2.323-2.28-3.351-4.625-3.351-7.72 0-1.53.266-2.93.647-3.712.343-.684.61-1.303.61-1.368 0-.195-2.971.782-5.371 1.824-2.932 1.27-6.093 3.094-8.531 4.885-.952.717-1.866 1.303-2.018 1.303-.152-.032-1.066-.945-2.057-2.084l-1.79-2.085 1.029-.782c3.999-3.191 11.006-6.774 15.919-8.207l2.476-.684-2.362-1.629c-3.046-2.084-4.57-4.331-4.798-7.1-.115-1.433-.038-2.182.381-2.638.495-.586.571-.521 1.371.88 1.409 2.475 3.694 3.94 8.34 5.276 2.247.651 4.304 1.27 4.532 1.368.305.097.077-.587-.457-1.596-.533-.945-.952-2.248-.952-2.866 0-2.476 2.59-4.886 5.218-4.886 3.39 0 5.903 2.866 4.037 4.625-.876.847-1.257.717-1.028-.358.19-.75.076-1.042-.533-1.303-1.029-.456-2.476-.456-3.047.033-.648.553-.572 2.247.228 3.191.914 1.14 5.561 4.886 6.056 4.886.228 0 1.066-.684 1.866-1.498l1.447-1.531 1.485 1.53c.8.815 1.714 1.499 1.943 1.499.266 0 1.866-1.238 3.58-2.736 2.666-2.345 3.123-2.866 3.123-3.843 0-1.368-.571-1.89-2.133-1.89-1.485 0-2.209.685-1.904 1.792.266.945 0 1.042-.99.26-1.029-.781-.876-2.214.38-3.387 2.247-2.15 6.513-1.433 8.189 1.336.876 1.53.609 3.843-.686 5.765l-1.028 1.433 1.104-.456c.572-.26 2.095-.75 3.352-1.043 5.141-1.27 8.188-3.159 9.521-5.927.457-.945.686-1.108 1.067-.782.761.651.533 4.234-.419 5.928-.914 1.596-4.304 4.722-5.485 5.048-1.104.293-.799.652.953 1.075 2.551.651 7.693 2.8 10.473 4.397 3.351 1.889 7.769 5.146 15.158 11.171 13.025 10.585 17.976 13.224 25.288 13.256 3.542.033 5.751-.814 8.113-3.061 1.942-1.857 2.551-3.355 2.551-6.319 0-4.625-2.742-7.133-7.807-7.165-3.161 0-5.142.912-6.284 2.898-1.486 2.606-.381 5.114 2.551 5.993 1.295.391 1.752.391 2.743.033 1.98-.684 2.97-2.997 1.713-4.039-.647-.586-2.627-.716-3.008-.195-.115.163-.419.325-.61.325-.723 0 .457-1.335 1.486-1.66 2.247-.75 4.646.781 4.646 2.963 0 3.062-1.98 4.853-5.637 5.114-2.78.195-5.103-.75-6.741-2.769-1.028-1.27-1.142-1.693-1.142-3.843 0-1.335-.038-2.41-.038-2.41-.038 0-.724.228-1.524.521-.799.293-2.399.521-3.58.554-3.961.032-6.474-1.76-6.474-4.593 0-3.582 3.884-5.57 6.512-3.354.991.879 1.524 1.889.838 1.596a10.886 10.886 0 0 1-.519-.214h-.001l-.001-.001-.002-.001a35.498 35.498 0 0 0-.81-.338c-2.094-.912-4.037.88-3.047 2.736.534.977 2.628 1.368 4.571.88.799-.229 2.818-1.14 4.532-2.053l3.123-1.693-.914-.945c-.533-.521-1.067-1.335-1.181-1.759-.381-1.27.038-3.485.838-4.527l.686-.912.304 1.238c.495 1.954 1.447 3.355 2.742 4.038.648.326 2.895.945 4.989 1.303 4.228.782 8.151 2.248 9.293 3.453.914 1.042 1.067 1.01 1.371-.098.61-2.345 4.075-5.211 6.665-5.504.914-.098 1.562-.066 1.447.097-.076.163-.685 1.238-1.371 2.41-.99 1.792-1.256 2.736-1.599 6.026-.876 8.338-2.247 11.562-6.437 15.112-3.084 2.671-7.083 4.462-10.74 4.886-4.456.52-9.711-.26-17.862-2.606-7.655-2.215-12.682-2.084-15.462.391-.952.847-1.105 1.238-1.105 2.768 0 .977-.152 1.76-.304 1.76-.191 0-.914-.49-1.638-1.108-1.142-.977-1.295-1.303-1.295-2.834 0-3.843 3.885-7.263 9.103-7.98.875-.13 1.561-.325 1.561-.455 0-.456-13.787-11.107-16.948-13.093-3.047-1.954-7.046-3.844-9.788-4.69-.8-.228-1.447-.391-1.447-.326 0 .032.267.782.609 1.628.457 1.108.572 2.28.457 4.202-.19 3.127-1.333 5.341-3.732 7.393l-1.485 1.27 1.371.228c3.58.587 8.912-.683 10.359-2.442 1.561-1.857 1.295-3.941-.457-3.941-1.904.032-2.476 1.596-.686 1.954.838.163.838.228.267.619-.838.586-2.361.032-2.971-1.075-.876-1.694 1.181-3.778 3.695-3.778 3.808 0 5.674 3.876 3.58 7.393-1.943 3.225-6.17 4.983-11.883 4.983-1.828 0-3.313.13-3.313.294 0 .162.266.814.571 1.465 1.599 3.257-2.399 6.905-6.094 5.602-2.094-.749-2.818-2.8-1.333-3.94.762-.587.762-.554.762.423 0 1.368 1.181 1.954 2.514 1.205 1.294-.717 1.18-1.857-.267-2.899-1.371-.977-2.209-1.042-3.999-.326-2.552 1.042-3.161 3.713-1.485 6.221 3.161 4.593 10.892 3.127 18.319-3.55 2.285-2.052 6.893-6.742 9.445-9.64.99-1.108 1.866-2.02 1.98-2.02.305 0 3.961 2.997 3.961 3.29 0 .52-8.645 9.64-11.768 12.376l-3.314 2.866 1.181.358c.609.196 2.285.945 3.732 1.694l2.552 1.303-2.932 1.596c-1.6.88-3.085 1.596-3.276 1.596-.647 0 .114.586 1.029.782.495.097 2.437.944 4.303 1.856 2.552 1.27 3.847 1.726 5.332 1.856 1.866.13 2.095.066 3.123-.879 1.066-.977 1.143-1.01 1.371-.326.495 1.238-.152 2.801-1.561 3.876-1.676 1.238-2.781 1.629-4.761 1.629-.8 0-1.485.13-1.485.293 0 .39 4.113 3.387 6.322 4.56 3.961 2.15 10.435 2.963 14.282 1.823 4.76-1.433 7.007-6.35 4.494-9.803-1.447-2.02-4.989-2.638-7.389-1.303-1.904 1.075-1.714 4.071.267 4.95 2.323 1.043 4.227-1.041 2.133-2.28l-.838-.52h.876c1.942 0 2.97 1.954 1.904 3.647-.571.913-2.78 1.629-4.342 1.369-1.752-.261-3.884-2.118-4.227-3.583-.381-1.726.038-3.843.952-4.95 1.181-1.434 4.304-2.672 6.665-2.672 2.323 0 5.256 1.108 6.855 2.54l1.105 1.01 1.104-1.432c3.923-5.081 12.111-5.96 16.072-1.694 2.285 2.475 1.562 7.165-1.371 8.696-3.694 1.922-7.922.521-7.922-2.67 0-2.15 2.171-3.453 4.228-2.541 1.066.488.914 1.042-.229.782-1.218-.261-2.094.358-2.094 1.465 0 1.14.647 1.661 1.98 1.661 4.037 0 4.951-5.048 1.181-6.416-1.181-.423-1.752-.423-3.276-.13-2.475.488-3.846 1.368-4.798 3.061-.953 1.661-1.067 4.593-.267 6.221 1.295 2.67 4.57 4.69 8.836 5.407 7.122 1.205 17.595-2.671 23.613-8.697 2.094-2.117 5.484-6.285 5.484-6.774 0-.13-.419-.163-.876-.032-.495.097-3.314.39-6.284.65-5.599.522-7.046.913-8.912 2.411-1.219.944-1.714 2.703-1.143 3.778.533 1.01 2.171 1.335 3.352.684 1.485-.847 1.066-2.182-.8-2.508-.724-.13-.724-.163.114-.553 1.333-.62 2.704-.196 3.314 1.074.876 1.76-.076 3.68-2.285 4.56-1.714.717-3.162.651-4.952-.228-3.084-1.465-3.808-5.146-1.713-8.305 1.599-2.345 4.037-3.778 8.302-4.82.305-.066.038-.587-.8-1.531-1.675-1.89-2.285-3.876-2.132-6.84.19-3.029 1.561-5.113 4.303-6.547 2.095-1.107 5.37-1.498 7.579-.879 1.752.521 3.961 2.606 4.266 4.071.381 1.727-.495 3.778-2.057 4.658-1.676.977-4.303 1.01-5.37.098-.723-.62-1.104-2.15-.457-1.89l.165.073.003.001.002.001h.001c.249.11.687.305 1.124.48.914.39 1.181.39 1.981-.099 3.161-1.758-.115-5.146-3.504-3.647-2.171.944-2.819 2.051-2.666 4.331.19 2.443.99 3.55 3.351 4.56 2.323 1.042 5.637 1.01 8.189-.032 2.208-.912 4.151-2.41 8.759-6.775 2.818-2.703 3.199-3.224 2.628-3.387-.419-.13-1.6-.782-2.628-1.433-1.066-.652-2.475-1.466-3.161-1.759-1.371-.619-1.333-1.01.076-1.303.533-.098 2.171-.749 3.656-1.433l2.666-1.27-4.989-3.713c-5.636-4.234-6.246-4.56-8.531-4.625-1.942-.065-3.58.782-4.113 2.182-.762 1.987 1.638 4.006 3.77 3.16.838-.294.952-.554.876-1.596-.114-1.303.533-1.531 1.486-.489.914 1.042.571 2.67-.838 3.876-1.143.977-1.524 1.107-3.237 1.107-2.362 0-3.847-.586-5.142-2.02-3.466-3.94-.838-9.38 5.218-10.747.99-.195 1.79-.489 1.79-.619s-2.362-2.28-5.218-4.788c-4.304-3.713-5.713-4.722-7.807-5.602-4.761-1.954-9.522-1.66-12.073.815-1.181 1.172-1.867 3.42-1.41 4.657 1.029 2.768 5.827 3.876 7.694 1.791.761-.847.647-2.28-.229-3.029-.952-.814-1.561-.814-2.818.033-1.333.88-1.752.554-.724-.619 2.704-3.094 7.693-.39 6.817 3.68-.571 2.54-4.189 4.365-7.807 3.941-4.113-.488-6.893-3.061-7.198-6.709-.191-2.703.343-4.462 2.056-6.384L251.4 5.44l-1.256.228c-8.227 1.4-16.491 6.58-25.936 16.285-2.095 2.15-3.923 3.941-4.076 4.006-.152.033-1.142-.586-2.247-1.433l-1.942-1.498.724-.88c.381-.455 1.942-2.051 3.427-3.517 1.486-1.498 2.704-2.736 2.704-2.801 0-.098-1.599-.196-3.503-.293-2.819-.13-3.961-.326-5.523-1.01-2.056-.912-3.427-2.117-3.77-3.387-.343-1.107-.114-1.173 1.79-.423 1.904.716 5.256.846 8.417.293 2.475-.456 6.931-2.215 11.692-4.625 7.845-4.006 13.368-5.277 22.127-5.016 4.304.098 6.094.293 8.189.88 5.712 1.563 10.13 3.94 15.462 8.37l3.694 3.061.267-1.563c.762-4.495 4.266-8.664 8.874-10.585 2.285-.977 2.78-1.075 5.941-1.01 2.742.033 4.266.228 7.236 1.042 4.114 1.108 5.637 1.238 7.084.521 1.333-.65 1.905-.586 1.905.13 0 1.564-3.238 3.616-5.713 3.616-.48 0-.758 0-.92.137-.223.19-.223.642-.223 1.72 0 2.117-1.028 4.299-2.552 5.308-.571.359-1.942.912-3.123 1.173-4.227 1.042-6.131 2.41-6.131 4.364 0 .814-.99.847-1.524.033-.952-1.531-.152-4.332 1.524-5.342.723-.423.723-.488.152-1.53-.533-.88-.571-1.27-.19-2.313.495-1.368 1.333-1.922 2.856-1.922 1.181 0 1.333.489.229.75-.381.097-.838.553-.991 1.074-.228.717-.076 1.01.61 1.499 1.104.781 2.323.749 3.58-.098.8-.554.99-.945.99-2.117 0-1.205-.229-1.661-1.105-2.443-.952-.814-1.409-.944-3.122-.944-3.809 0-7.199 2.214-8.455 5.569-1.905 4.983.571 11.497 6.055 15.894 2.323 1.89 5.561 3.55 5.789 2.997.076-.196-.076-.652-.343-1.043-.228-.423-.533-1.986-.609-3.517-.152-2.345-.038-3.127.647-4.69.953-2.117 2.247-3.616 3.847-4.3 1.447-.65 1.523-.618 1.104.359-.914 2.052-.304 4.527 1.79 7.133.724.879 1.791 2.247 2.324 2.996.571.75 1.142 1.4 1.256 1.4.153 0 .648-.781 1.105-1.758 1.028-2.215 4.075-6.189 5.865-7.687.724-.619 1.371-1.237 1.371-1.368 0-.097-.571-.325-1.219-.423-3.084-.586-6.055-2.703-6.588-4.723-.381-1.4-.038-1.53 1.599-.586 1.828 1.01 3.695 1.563 5.256 1.563 1.181 0 5.142-.879 7.503-1.693l1.066-.326-1.333-1.335c-2.171-2.15-2.59-4.332-1.333-6.612.876-1.498 1.714-2.084 3.923-2.736 1.257-.326 1.714-.326 3.123.13 1.942.652 2.856 1.694 2.856 3.29 0 1.987-2.704 3.583-4.113 2.378-.609-.522-.571-1.01.038-.815.8.26 1.79-.423 1.79-1.237 0-.587-.266-.847-1.028-1.01-2.552-.554-4.151 1.987-2.399 3.876 1.066 1.172 2.323 1.693 5.941 2.508 1.676.358 4.113 1.14 5.446 1.693l2.438 1.01.761-.782c.419-.423 1.257-1.563 1.866-2.475.648-.945 1.295-1.824 1.486-1.922.19-.097.343 5.244.343 13.028V33.19l-1.562 2.182c-.876 1.237-2.399 3.127-3.39 4.201-3.237 3.518-4.037 5.505-3.008 7.426.914 1.694 3.961 1.89 5.141.358.571-.749.571-.879 0-1.66-.761-.945-1.371-.88-1.98.162-.381.652-.457.652-.952.163-.419-.423-.419-.651.076-1.368.304-.488.99-1.075 1.523-1.335.876-.424 1.143-.391 2.476.163l1.485.618.114 2.704c.115 2.638.077 2.703-1.485 4.95-1.409 2.052-1.561 2.443-1.409 3.909.152 1.14.609 2.15 1.599 3.42l1.372 1.79-.039 7.72c-.038 7.035-.076 7.654-.571 6.677l-.533-1.075-1.79 1.172c-4.266 2.802-10.55 2.802-14.815 0l-1.333-.879-1.638 1.303c-2.285 1.791-4.837 2.475-8.759 2.28-3.619-.163-6.246-1.042-9.674-3.29-1.181-.781-3.009-1.856-4.075-2.377-3.961-1.955-9.979-.847-11.578 2.117-.724 1.433-1.371 1.4-1.942-.13-1.029-2.704 1.866-6.221 6.322-7.654 1.866-.587 2.818-.684 5.484-.587 1.79.098 3.542.26 3.885.391.495.195.685.065.876-.684.99-4.104 2.323-6.058 7.998-11.66 5.903-5.797 7.807-9.934 6.131-13.288-2.056-4.17-10.245-3.974-11.501.293-.686 2.345 1.332 4.69 4.037 4.69 2.285 0 3.503-1.954 2.018-3.322-.571-.554-.571-.587 0-.587 1.79 0 2.742 2.476 1.714 4.365-.495 1.01-3.123 2.15-4.799 2.15-1.485 0-3.77-.782-4.837-1.63l-.761-.618v6.09c0 5.342-.077 6.221-.724 7.231-1.295 2.085-2.399 3.094-4.418 4.039-4.265 1.987-9.293.912-11.311-2.41-2.361-3.844.838-8.403 5.37-7.687 2.513.424 3.961 3.03 2.399 4.364-.609.49-.647.457-.647-.456 0-1.172-.61-1.758-1.866-1.758-2.324 0-3.238 2.736-1.333 4.266 1.866 1.499 5.141.847 6.741-1.302.799-1.108.838-1.499.838-8.566 0-4.104-.115-7.426-.267-7.426-.686 0-6.208 4.169-8.15 6.123-1.143 1.205-4.456 5.146-7.275 8.761-7.502 9.576-10.892 12.637-17.328 15.666-8.455 4.006-17.52 4.788-24.223 2.117-2.17-.879-6.36-3.973-6.741-5.015-.342-.88-.685-.782-1.523.553-2.399 3.811-9.064 6.026-16.034 5.277-5.56-.554-10.511-2.704-15.196-6.482l-2.742-2.247-.229 1.27c-.495 3.16-3.275 6.677-6.398 8.012-4.151 1.824-8.036 1.727-11.083-.26-5.712-3.746-3.58-11.237 3.2-11.367 4.265-.065 6.779 3.355 4.151 5.634-1.105.912-2.019 1.14-3.237.75-.914-.294-.724-.782.266-.782 1.105 0 1.79-.586 1.79-1.466 0-.977-.723-1.465-2.171-1.465-2.704 0-4.113 2.768-2.399 4.657 2.59 2.801 8.303 1.173 10.093-2.866.914-2.02.609-4.755-.876-7.459-1.067-1.986-3.619-4.755-4.304-4.755-.191 0-.343.456-.343 1.043 0 1.53-1.409 3.712-2.818 4.494-3.732 1.954-8.493-.423-7.427-3.713.61-1.889 3.085-2.443 3.733-.814.152.39.076.39-.457 0-.534-.358-.762-.358-1.219-.033-1.6 1.14.343 3.355 2.399 2.736 1.447-.423 2.247-2.345 1.6-3.745-.648-1.303-2.438-2.248-4.304-2.248-5.598 0-7.426 4.723-3.732 9.641.495.619.419.847-.648 2.182-.685.814-1.866 2.508-2.704 3.81l-1.485 2.346-1.219-2.085c-.685-1.107-1.866-2.898-2.666-3.908-1.142-1.498-1.333-1.922-.952-2.215.99-.684 2.095-3.257 2.095-4.82 0-.88-.305-2.02-.686-2.638-1.904-3.03-7.769-3.062-9.216-.065-.648 1.368-.115 2.963 1.257 3.615.914.423 1.142.423 2.094 0 1.219-.586 1.524-1.661.648-2.41-.457-.391-.8-.424-1.333-.196-.61.26-.686.26-.534-.163.153-.26.648-.586 1.181-.684 1.333-.293 2.78.945 2.78 2.378 0 2.378-1.675 3.68-4.684 3.68-2.971 0-4.761-1.53-5.789-4.885l-.419-1.466-1.066.977c-2.476 2.248-4.418 5.993-4.418 8.534 0 4.592 4.037 7.947 8.34 6.937 2.933-.651 4.075-3.42 2.133-5.048-1.599-1.4-4.38-.977-4.38.651 0 .912.686 1.466 1.828 1.466.8 0 .838.065.457.488-.914.945-3.427.326-4.151-1.042-.8-1.498-.495-2.703.914-3.908 1.333-1.14 1.371-1.14 3.999-1.01 2.476.098 2.742.196 4.113 1.368 3.085 2.54 3.085 6.286 0 8.99-1.79 1.628-3.732 2.312-6.398 2.377-3.313.065-5.941-.88-8.417-2.996-2.133-1.857-3.77-4.593-3.77-6.384 0-.456-.114-.814-.229-.814-.114 0-1.485.977-3.008 2.182-4.799 3.81-9.408 5.7-14.968 6.253-7.084.652-12.987-1.27-15.958-5.276l-.914-1.238-1.066 1.238c-6.817 8.045-22.318 7.947-35.077-.26-4.113-2.671-6.855-5.44-12.377-12.67-6.17-8.013-10.017-11.888-14.549-14.592-1.638-.977-2.095-.944-1.6.163.23.554.343 3.453.267 7.426-.114 5.732-.038 6.644.572 7.556.913 1.466 2.285 2.15 4.303 2.183 1.447.032 1.904-.13 2.666-.88 1.676-1.694.876-4.136-1.371-4.136-1.257 0-1.79.488-1.98 1.791l-.115.977-.685-.88c-1.6-1.986 1.066-4.526 4.227-4.005 4.951.781 6.132 6.188 2.057 9.445-1.371 1.107-4.57 1.889-6.436 1.596-2.248-.326-4.875-1.596-6.17-2.964-1.98-2.02-2.4-3.94-2.247-9.901.114-4.82 0-5.732-.686-4.82-.114.195-.952.65-1.828.977-3.999 1.563-8.188-.066-8.226-3.225 0-1.465.952-2.67 2.17-2.67.572 0 .572.032 0 .586-.38.325-.647.944-.647 1.368 0 2.052 3.351 2.703 5.332 1.042 3.237-2.801.61-7.068-4.38-7.035-4.19 0-6.284 1.954-6.284 5.797 0 2.964 1.6 5.472 7.046 10.944 4.532 4.527 6.779 7.654 7.236 9.933l.03.156c.216 1.088.31 1.57.588 1.724.22.121.554.036 1.154-.116l.018-.005c2.133-.553 6.513-.39 8.684.326 4.036 1.303 6.55 3.745 6.55 6.384 0 .977-.228 1.726-.647 2.117-.648.586-.686.553-1.486-.75-1.18-1.921-3.656-2.963-7.045-2.963-2.895 0-3.695.293-8.227 3.094-4.76 2.931-6.132 3.355-10.854 3.387-4.418 0-5.98-.456-8.303-2.443-1.37-1.172-1.409-1.172-2.475-.293-2.362 1.954-7.693 2.769-11.235 1.792-1.067-.326-2.666-1.075-3.58-1.662-.914-.618-1.752-1.14-1.867-1.14-.152 0-.38.49-.57 1.043-.23.716-.382-1.498-.458-6.612L0 60.971l1.523-2.248c1.98-2.833 1.943-4.266-.152-7.23C0 49.57-.039 49.408.076 46.803L.19 44.1l1.333-.62c1.22-.553 1.486-.553 2.476-.162 1.447.586 2.209 1.824 1.638 2.67-.381.62-.381.62-.8-.13-.571-.944-1.18-1.107-1.943-.456-.837.75-.761 1.368.343 2.28 1.257 1.075 2.666 1.042 4.037-.13 1.943-1.661 1.295-3.974-2.094-7.687-.99-1.074-2.552-2.996-3.504-4.266L0 33.286l.076-13.32L.19 6.643 2.02 9.152c.99 1.4 1.98 2.606 2.17 2.703.19.098 1.6-.293 3.123-.912 1.524-.618 4-1.367 5.446-1.693 4.266-.88 6.285-2.28 6.285-4.365 0-1.205-1.333-2.084-2.933-1.921-.762.065-1.104.293-1.18.847-.191 1.01.609 1.758 1.56 1.498.877-.228.763.456-.228.977-1.028.554-2.666-.163-3.427-1.498-.61-1.075-.61-1.303-.153-2.28.686-1.4 2.285-2.313 4.304-2.508.229 0 .99.13 1.714.326Zm77.465 6.84c2.438 3.028 2.78 6.188 1.066 9.119-1.523 2.508-3.884 3.713-7.312 3.713-4.113 0-6.893-1.987-6.893-4.886 0-3.778 5.294-5.57 7.122-2.442.647 1.074.38 1.172-.99.293-.99-.62-1.296-.684-2.095-.358-.534.195-1.067.749-1.22 1.237-.685 2.313 1.79 3.843 4.838 3.03 2.209-.62 3.199-1.857 3.16-3.844-.075-2.052-.951-3.42-2.894-4.527-1.409-.782-1.942-.88-4.646-.88-2.742 0-3.428.13-5.75 1.108-2.21.912-3.543 1.856-7.885 5.602-2.894 2.475-5.255 4.657-5.255 4.787 0 .163.838.456 1.866.684 2.285.489 5.141 2.508 5.941 4.17.8 1.628.724 4.103-.19 5.634-2.59 4.332-10.398 3.81-10.398-.652 0-1.01.648-1.823 1.6-2.019.38-.065.533.26.571 1.205.038 1.075.19 1.336 1.067 1.596.761.228 1.257.163 2.018-.26 2.476-1.368 1.752-4.234-1.257-5.049-2.437-.651-4.075.033-8.835 3.616-2.21 1.66-4.494 3.354-5.104 3.778-.61.39-1.028.781-.952.846.533.391 6.208 2.801 6.627 2.801.952 0 1.028.652.114.945-.495.163-1.942.945-3.199 1.791-1.295.815-2.628 1.498-2.97 1.498-.343 0-.61.066-.61.163 0 .098 1.828 1.955 4.037 4.072 6.094 5.862 8.379 7.067 12.949 6.742 2.933-.196 4.646-.977 5.75-2.704.953-1.433 1.143-3.745.382-5.016-.648-1.074-2.819-2.28-4.151-2.28-1.486 0-3.047 1.369-2.895 2.508.076.457.571 1.14 1.142 1.499.953.586 1.143.618 2.095.228a23.65 23.65 0 0 1 1.371-.587c.61-.26.229 1.27-.495 1.89-1.104.944-4.113.911-5.522-.066-1.18-.781-2.095-2.41-2.095-3.745 0-.456.343-1.498.8-2.28 1.561-2.768 5.865-3.876 9.788-2.54 2.17.749 4.799 3.322 5.37 5.178.952 3.224.076 7.1-2.133 9.315-.686.717-.8 1.01-.419 1.107 7.541 1.89 11.16 6.547 8.684 11.204-.572 1.108-1.105 1.531-2.514 2.085-3.047 1.14-5.903.26-6.97-2.15-.457-1.075-.457-1.335.077-2.312.723-1.27 2.209-1.791 3.16-1.107.572.39.534.455-.266.618-1.333.26-1.447 1.76-.19 2.443 1.256.717 2.627.423 3.199-.651.647-1.173.571-1.792-.305-3.03-1.485-2.051-3.618-2.703-11.235-3.322-2.285-.195-4.608-.456-5.103-.553-.8-.163-.61.163 1.409 2.736 4.075 5.178 7.807 8.142 13.253 10.455 4.951 2.117 9.56 2.898 13.711 2.345 5.941-.815 9.636-4.007 9.674-8.37 0-2.15-.495-3.225-2.171-4.69-1.714-1.532-4.114-2.183-6.17-1.662-2.133.554-2.895 1.466-2.895 3.387 0 1.368.153 1.727 1.067 2.41 1.866 1.368 4.456.782 4.456-.977 0-1.01-.914-1.628-2.095-1.433-1.142.196-1.257-.228-.228-.716 1.942-.88 4.227.39 4.227 2.345 0 3.81-5.636 5.08-8.988 2.052-3.275-2.964-2.095-7.882 2.285-9.771 4.456-1.89 10.512-.326 13.254 3.42l1.18 1.628 1.219-1.075c5.18-4.56 14.663-2.28 14.663 3.485 0 3.42-3.39 5.928-6.779 4.983-1.828-.52-3.047-2.377-2.323-3.55.571-.944 1.066-1.237 2.247-1.237h.914l-.838.52c-1.79 1.076-.533 2.997 1.675 2.541 2.209-.488 2.705-4.103.686-5.21-2.628-1.5-6.208-.652-7.655 1.823-1.562 2.606-.952 5.244 1.752 7.524 2.056 1.79 3.618 2.247 7.693 2.247 5.294 0 9.978-1.824 14.244-5.504l1.866-1.661h-1.561c-3.695 0-6.589-2.117-6.589-4.853 0-1.303.266-1.368 1.523-.326 1.676 1.433 3.618 1.303 7.427-.521 3.275-1.596 4.913-2.28 6.055-2.573.534-.163 0-.586-2.475-1.857-1.752-.912-3.237-1.693-3.275-1.726-.191-.13 4.608-2.67 5.903-3.094l1.257-.456-3.58-3.127c-3.961-3.452-6.627-6.286-14.816-15.666-3.046-3.485-6.931-7.751-8.607-9.445-6.436-6.579-13.558-11.692-19.004-13.614-1.752-.619-5.904-1.694-6.627-1.694-.153 0 .305.75.99 1.661Zm9.331 8.826c.419.781.762 1.986.762 2.703 0 1.303-1.181 3.42-1.905 3.42-.952 0-.152.651 2.552 2.15 3.732 2.019 4.799 2.41 6.627 2.41 1.752 0 3.009-.88 3.009-2.117 0-.945-1.219-2.117-2.209-2.117-.381 0-1.067.228-1.524.52-.495.294-.99.457-1.104.359-.419-.39.381-1.563 1.409-2.02 3.047-1.335 6.094.554 6.094 3.746 0 2.41-2.019 4.17-5.332 4.69-1.219.163-3.999-.26-5.789-.912-.572-.228-.61-.065-.419 1.531.19 1.466.038 2.085-.762 3.583-1.333 2.54-3.351 3.648-6.513 3.648-1.294 0-2.818-.228-3.465-.489-3.695-1.596-3.847-6.97-.19-7.654 1.485-.293 3.389.619 3.427 1.596 0 .195-.19.163-.457-.065-.61-.521-2.666-.521-3.275 0-.572.488-.61 2.052-.038 2.931.647 1.042 2.78 1.629 4.494 1.238 1.752-.391 2.666-1.205 3.084-2.769.572-2.15-.761-4.527-3.161-5.602-1.79-.781-5.408-.716-7.35.163-2.057.912-3.504 2.378-3.77 3.909a31.07 31.07 0 0 1-.343 1.726c-.229.912.495 4.527 1.104 5.504.762 1.238 2.933 3.094 4.38 3.746 3.656 1.628 8.645 1.27 13.901-.977 4.151-1.76 7.008-3.583 12.683-8.11l4.303-3.453.838.912c.495.489 1.333 1.433 1.904 2.085l1.029 1.205-2.286 1.856c-1.256 1.01-2.285 1.954-2.285 2.085 0 .13.648.325 1.448.456 2.247.293 5.979 2.052 7.122 3.29 2.513 2.865 2.78 6.057.609 7.718-1.6 1.205-2.019 1.173-1.752-.163.381-1.628-.609-3.29-2.514-4.364-1.523-.847-1.904-.912-5.446-.912-3.58 0-4.227.098-9.178 1.53-2.933.848-6.627 1.792-8.189 2.053-3.427.619-8.683.716-11.044.163-2.78-.62-6.475-2.573-8.988-4.69-3.961-3.42-5.447-6.905-6.246-14.56-.42-4.07-.99-5.927-2.514-7.881l-.914-1.205h1.142c2.628 0 5.409 1.987 7.046 4.95l.838 1.531 1.105-.977c1.37-1.237 4.265-2.41 7.198-2.898 7.083-1.173 8.759-2.15 9.483-5.635.152-.652.343-1.205.457-1.205.114 0 .533.619.914 1.368Zm63.983 1.4c-.609-1.596.419-3.42 2.247-3.94 2.285-.62 4.342.194 4.951 1.986 1.371 4.104-5.636 5.993-7.198 1.954Zm5.713-.977c0-.26-.343-.782-.762-1.14-.419-.358-.99-.651-1.257-.651-.914 0-2.17 1.01-2.17 1.791 0 .782 1.256 1.791 2.17 1.791.686 0 2.019-1.205 2.019-1.791Zm-164.909.782c-2.018.358-3.618 1.172-4.913 2.54-2.095 2.15-2.018 4.853.114 6.84 1.067 1.01 1.524 1.205 3.39 1.335 1.942.13 2.209.065 3.085-.749 1.866-1.726 1.028-4.397-1.371-4.397-1.067 0-2.21.912-2.21 1.726 0 .293.382.75.839 1.01l.838.521H9.026c-2.628 0-2.818-3.354-.266-4.82 3.237-1.857 7.617.586 7.617 4.267 0 1.367-.838 3.289-1.828 4.234-1.98 1.889-6.856 2.573-9.56 1.4-.685-.326-1.333-.488-1.447-.39-.38.292 2.095 3.484 4.875 6.318 1.447 1.498 2.97 3.29 3.39 4.006 2.475 4.104 1.18 8.696-2.819 10.39-1.752.716-2.018 1.074-1.409 1.921.267.359.838.163 2.818-1.042 5.066-3.094 7.199-5.993 7.427-10.162.114-2.28 0-2.8-.8-4.071-1.066-1.759-2.818-2.703-5.408-2.931l-1.904-.163 1.333-.619c3.047-1.433 7.617-.163 9.407 2.54.343.554.533.489 2.018-.781 1.752-1.498 3.923-2.475 6.437-2.801 1.523-.196 1.6-.26 1.37-1.075-1.066-3.615-4.455-8.631-7.54-11.171-2.514-2.052-4.418-3.03-7.312-3.648-2.4-.554-3.047-.587-5.142-.228ZM316.68 30.029c2.856-6.481 8.873-11.823 14.358-12.8 3.465-.586 7.426.261 9.331 2.02 1.028.944 2.018 2.899 2.018 4.006 0 1.205-1.333 3.257-2.628 4.039-1.637 1.01-4.342.944-5.56-.13-1.79-1.499-.952-4.398 1.257-4.398 1.066 0 2.361.847 2.361 1.531 0 .228-.343.717-.762 1.075l-.762.651h.914c1.714 0 2.552-1.921 1.6-3.55-1.638-2.703-6.208-2.475-8.226.391-.914 1.238-.991 3.68-.229 5.244.762 1.53 3.085 3.029 5.37 3.485 1.866.358 3.771.097 6.589-.912.952-.326-1.371 3.061-4.037 5.797-3.656 3.843-4.113 4.462-4.837 6.58-.724 2.116-.533 3.908.609 5.83.686 1.172 3.085 2.865 4.037 2.865.724 0 .953.587.496 1.303-.419.652-.496.619-2.666-.684-4.38-2.605-6.741-5.341-7.579-8.663-1.105-4.528 1.79-8.534 6.169-8.566 1.752 0 1.829-.424.191-1.01-2.818-1.01-6.817.065-8.684 2.313l-.837.977-2.019-1.564c-1.904-1.498-4.875-2.67-6.703-2.67-.952 0-.914-.522.229-3.16Zm-155.997-9.966c-1.486 1.107-2.247 2.573-2.247 4.462 0 2.834 1.333 4.364 6.703 7.686 3.732 2.313 6.055 4.43 7.083 6.45l.8 1.497.914-1.628c1.219-2.02 3.009-3.648 6.589-5.928 5.827-3.713 7.236-5.309 7.236-8.044 0-3.192-2.247-5.375-5.484-5.375-.99 0-2.285.229-2.895.489-2.323 1.01-3.046 4.104-1.333 5.537 1.676 1.465 4.38.814 4.38-.977 0-.814-1.257-1.661-1.904-1.303-.228.098-.381.065-.381-.098 0-.944 2.818-.651 3.618.359 1.219 1.465.305 4.038-1.714 4.95-2.513 1.107-6.741.228-8.226-1.726l-.609-.782-1.371 1.14c-1.905 1.531-2.743 1.857-4.837 1.857-3.085 0-5.142-1.4-5.142-3.518 0-1.4.572-2.312 1.714-2.67.99-.326 2.476-.098 2.476.39 0 .163-.153.196-.381.098-.191-.098-.724-.033-1.143.163-1.028.456-1.028 2.117-.038 2.605 2.057.912 4.608-.456 4.608-2.507 0-2.508-1.98-4.007-5.293-4.007-1.486 0-2.133.196-3.123.88ZM38.695 37.39c-1.448-1.466-1.333-2.996.304-4.397.99-.847 1.6-1.107 2.628-1.107 2.856 0 4.799 2.735 3.504 4.885-1.295 2.15-4.608 2.475-6.436.619Zm4.684-1.303c.495-.782.495-.944-.076-1.726-1.143-1.498-3.694-.847-3.694.944 0 1.824 2.704 2.378 3.77.782Zm258.598-3.29c-1.104.847-1.294 1.206-1.294 2.476 0 2.084 1.409 3.29 3.808 3.29s3.809-1.206 3.809-3.258c0-1.856-1.295-3.061-3.504-3.322-1.333-.163-1.714-.032-2.819.815Zm3.923 1.27c1.295 1.01.419 3.03-1.333 3.03-1.028 0-2.171-.912-2.171-1.726 0-1.564 2.133-2.378 3.504-1.303ZM168.794 52.406c-1.6-2.02-.572-4.69 2.247-5.96a5.221 5.221 0 0 1 6.588 2.182c.914 1.596.572 3.224-1.066 4.625-2.438 2.084-5.751 1.726-7.769-.847Zm6.131-.587c.838-.814.8-2.442-.038-3.094-1.104-.846-2.932-.716-3.846.294-.457.488-.8 1.042-.8 1.27 0 .228.343.781.8 1.27.952 1.042 2.932 1.172 3.884.26Zm-154.892-.814c-.99 1.661-4 4.267-7.998 6.905-3.961 2.638-5.637 4.267-6.55 6.449-1.143 2.768-.153 5.993 2.208 7.263 1.028.554 1.714.651 3.694.554 2.171-.098 2.552-.228 3.504-1.14 2.171-2.085 1.105-5.602-1.675-5.602-.99 0-2.171 1.01-2.171 1.856 0 .228.342.717.8 1.108.99.846.8 1.042-.686.618-2.133-.651-2.666-3.192-1.066-4.853 1.828-1.823 5.446-2.117 7.883-.65l1.067.683 1.142-.847c3.77-2.703 10.093-.456 10.093 3.615 0 1.238-.19 1.596-1.257 2.41-1.371 1.043-2.78 1.206-3.542.424-.419-.423-.419-.489.076-.456 1.295.163 1.904-.032 2.285-.782.61-1.14.114-2.377-1.18-2.963-1.524-.684-2.438-.62-3.657.293-.914.651-1.066 1.01-1.028 2.377.038 1.987.914 3.518 2.514 4.365.952.52 1.714.618 3.58.553 2.018-.097 2.552-.26 3.542-1.075 1.447-1.172 2.437-3.908 2.094-5.634-.342-1.89-2.018-4.071-6.36-8.403-2.133-2.182-4.57-4.886-5.332-5.993l-1.37-2.02-.61.945Zm297.445 8.37c4.037-3.94 5.903-6.057 6.97-7.914l.876-1.4.952 1.237c1.447 1.89 4.151 4.202 7.35 6.319 5.827 3.843 7.389 5.797 7.389 9.282 0 3.713-2.057 5.505-6.132 5.31-1.866-.098-2.59-.294-3.313-.88-1.943-1.563-2.171-4.397-.495-5.407 1.218-.716 2.78-.619 3.465.228.8.977.762 1.433-.152 2.215l-.762.651h.914c1.448 0 2.628-1.498 2.4-3.028-.495-3.127-5.37-4.495-8.722-2.476l-1.104.684-.838-.651c-4.494-3.615-12.721.586-10.016 5.113.875 1.433 3.465 2.15 4.379 1.205.343-.358.229-.456-.609-.456-.533 0-1.219-.26-1.523-.586-1.943-2.28 2.247-4.983 4.608-2.964.762.684.99 1.173.99 2.345 0 3.322-1.98 5.049-5.789 5.049-1.904 0-2.361-.13-3.504-.978-1.752-1.335-2.704-3.452-2.361-5.439.343-2.312 1.447-3.94 5.027-7.458Z" clip-rule="evenodd"/></svg>